<?xml version='1.0' encoding='UTF-8'?>
<svg xmlns="http://www.w3.org/2000/svg" width="854" height="400" viewBox="0 0 854 400">
  <rect x="0" y="0" width="854" height="400" rx="8" ry="8" fill="#0d1117"/>
  <rect x="0" y="0" width="854" height="32" rx="8" ry="8" fill="#161b22"/>
  <rect x="0" y="20" width="854" height="12" fill="#161b22"/>
  <text x="427" y="21" font-family="'SF Mono', 'Fira Code', 'JetBrains Mono', monospace" font-size="11" fill="#484f58" text-anchor="middle">github / PranavReddyy</text>

  <circle cx="20" cy="16" r="5" fill="#484f58"/>
  <circle cx="36" cy="16" r="5" fill="#484f58"/>
  <circle cx="52" cy="16" r="5" fill="#484f58"/>

  <g font-family="'SF Mono', 'Fira Code', 'JetBrains Mono', monospace">

    <text x="28" y="62" font-size="16" font-weight="bold" fill="#c9d1d9">Pranav Reddy Mitta</text>
    <text x="28" y="82" font-size="12" fill="#484f58">Design, engineering &amp; AI — building fast, minimal digital products.</text>

    <rect x="28" y="96" width="798" height="1" fill="#21262d"/>

    <text x="28" y="122" font-size="13" fill="#484f58">age</text>
    <text x="200" y="122" font-size="13" id="age_data" fill="#c9d1d9">20 years, 1 month, 20 days</text>

    <text x="28" y="148" font-size="13" fill="#484f58">commits</text>
    <text x="200" y="148" font-size="13" id="commit_data" fill="#c9d1d9">680</text>

    <text x="28" y="174" font-size="13" fill="#484f58">stars</text>
    <text x="200" y="174" font-size="13" id="star_data" fill="#c9d1d9">7</text>

    <text x="28" y="200" font-size="13" fill="#484f58">repos</text>
    <text x="200" y="200" font-size="13" id="repo_data" fill="#c9d1d9">58</text>

    <text x="28" y="226" font-size="13" fill="#484f58">contributed</text>
    <text x="200" y="226" font-size="13" id="contrib_data" fill="#c9d1d9">64</text>

    <text x="28" y="252" font-size="13" fill="#484f58">followers</text>
    <text x="200" y="252" font-size="13" id="follower_data" fill="#c9d1d9">24</text>

    <rect x="28" y="266" width="798" height="1" fill="#21262d"/>

    <text x="28" y="292" font-size="13" fill="#3fb950">++</text>
    <text x="200" y="292" font-size="13" id="loc_add" fill="#c9d1d9">1,172,353</text>

    <text x="28" y="318" font-size="13" fill="#f85149">--</text>
    <text x="200" y="318" font-size="13" id="loc_del" fill="#c9d1d9">379,669</text>

    <text x="28" y="344" font-size="13" fill="#484f58">net</text>
    <text x="200" y="344" font-size="13" id="loc_data" fill="#c9d1d9">792,684</text>

    <rect x="28" y="360" width="798" height="1" fill="#21262d"/>

    <text x="28" y="382" font-size="12">
      <tspan fill="#484f58">itsbypranav.com</tspan>
      <tspan fill="#21262d">   ·   </tspan>
      <tspan fill="#484f58">x.com/0xPranavReddy</tspan>
      <tspan fill="#21262d">   ·   </tspan>
      <tspan fill="#484f58">linkedin.com/in/pranavreddymitta</tspan>
    </text>

  </g>
</svg>