<?xml version='1.0' encoding='UTF-8'?>
<svg xmlns="http://www.w3.org/2000/svg" width="854" height="400" viewBox="0 0 854 400">
  <rect x="0" y="0" width="854" height="400" rx="8" ry="8" fill="#ffffff"/>
  <rect x="0" y="0" width="854" height="32" rx="8" ry="8" fill="#f6f8fa"/>
  <rect x="0" y="20" width="854" height="12" fill="#f6f8fa"/>
  <rect x="0" y="32" width="854" height="1" fill="#d8dee4"/>
  <text x="427" y="21" font-family="'SF Mono', 'Fira Code', 'JetBrains Mono', monospace" font-size="11" fill="#8c959f" text-anchor="middle">github / PranavReddyy</text>

  <circle cx="20" cy="16" r="5" fill="#d0d7de"/>
  <circle cx="36" cy="16" r="5" fill="#d0d7de"/>
  <circle cx="52" cy="16" r="5" fill="#d0d7de"/>

  <g font-family="'SF Mono', 'Fira Code', 'JetBrains Mono', monospace">

    <text x="28" y="62" font-size="16" font-weight="bold" fill="#24292f">Pranav Reddy Mitta</text>
    <text x="28" y="82" font-size="12" fill="#57606a">Design, engineering &amp; AI — building fast, minimal digital products.</text>

    <rect x="28" y="96" width="798" height="1" fill="#d8dee4"/>

    <text x="28" y="122" font-size="13" fill="#57606a">age</text>
    <text x="200" y="122" font-size="13" id="age_data" fill="#24292f">20 years, 1 month, 14 days</text>

    <text x="28" y="148" font-size="13" fill="#57606a">commits</text>
    <text x="200" y="148" font-size="13" id="commit_data" fill="#24292f">667</text>

    <text x="28" y="174" font-size="13" fill="#57606a">stars</text>
    <text x="200" y="174" font-size="13" id="star_data" fill="#24292f">7</text>

    <text x="28" y="200" font-size="13" fill="#57606a">repos</text>
    <text x="200" y="200" font-size="13" id="repo_data" fill="#24292f">56</text>

    <text x="28" y="226" font-size="13" fill="#57606a">contributed</text>
    <text x="200" y="226" font-size="13" id="contrib_data" fill="#24292f">61</text>

    <text x="28" y="252" font-size="13" fill="#57606a">followers</text>
    <text x="200" y="252" font-size="13" id="follower_data" fill="#24292f">23</text>

    <rect x="28" y="266" width="798" height="1" fill="#d8dee4"/>

    <text x="28" y="292" font-size="13" fill="#1a7f37">++</text>
    <text x="200" y="292" font-size="13" id="loc_add" fill="#24292f">1,150,326</text>

    <text x="28" y="318" font-size="13" fill="#cf222e">--</text>
    <text x="200" y="318" font-size="13" id="loc_del" fill="#24292f">376,144</text>

    <text x="28" y="344" font-size="13" fill="#57606a">net</text>
    <text x="200" y="344" font-size="13" id="loc_data" fill="#24292f">774,182</text>

    <rect x="28" y="360" width="798" height="1" fill="#d8dee4"/>

    <text x="28" y="382" font-size="12">
      <tspan fill="#57606a">itsbypranav.com</tspan>
      <tspan fill="#d8dee4">   ·   </tspan>
      <tspan fill="#57606a">x.com/0xPranavReddy</tspan>
      <tspan fill="#d8dee4">   ·   </tspan>
      <tspan fill="#57606a">linkedin.com/in/pranavreddymitta</tspan>
    </text>

  </g>
</svg>